# xmcd
# 
# Track frame offsets:
#     150
#     18905
#     37962
#     53422
#     77745
#     91947
#     126377
#     141470
#     154262
#     168950
#     186977
#     203315
#     216205
#     229522
#     242965
#     257767
#     272470
#     287960
#     300202
#     317757
# 
# Disc length: 4567
# 
# Revision: 1
# Processed by: cddbd v1.5.2PL0 Copyright (c) Steve Scherf et al.
# Submitted via: fre:ac v1.0.31
# 
DISCID=0c11d514
DTITLE=Jimmy Buffet - Meet Me In Margaritaville
DYEAR=0
DGENRE=Rock/Pop
TTITLE0=Margaritaville
TTITLE1=Migration
TTITLE2=Growing Older But Not Up
TTITLE3=Holiday (Live - New Recording)
TTITLE4=Come Monday
TTITLE5=Fruitcakes
TTITLE6=We Are The People Our Parents Warned Us About
TTITLE7=Cheeseburger In Paradise
TTITLE8=Jolly Mon Sing
TTITLE9=The Pascagoula Run (Live - New Recording)
TTITLE10=Tin Cup Chalice
TTITLE11=Pencil Thin Moustache
TTITLE12=Grapefruit Juicy Fruit
TTITLE13=Coconut Telegraph
TTITLE14=Changes In Latititudes, Changes in Attitudes
TTITLE15=Last Mango in Paris
TTITLE16=Fins
TTITLE17=Why Don't We Get Drunk
TTITLE18=Brown Eyed Girl
TTITLE19=One Particular Harbour
EXTD=
EXTT0=
EXTT1=
EXTT2=
EXTT3=
EXTT4=
EXTT5=
EXTT6=
EXTT7=
EXTT8=
EXTT9=
EXTT10=
EXTT11=
EXTT12=
EXTT13=
EXTT14=
EXTT15=
EXTT16=
EXTT17=
EXTT18=
EXTT19=
PLAYORDER=
